<mxfile host="app.diagrams.net" agent="Mozilla/5.0 (Windows NT 10.0; Win64; x64) AppleWebKit/537.36 (KHTML, like Gecko) Chrome/118.0.0.0 Safari/537.36" version="28.0.3">
  <diagram name="第 1 页" id="XEGoXAZ0bTQ9jt8kHUKM">
    <mxGraphModel dx="1464" dy="639" grid="1" gridSize="10" guides="1" tooltips="1" connect="1" arrows="1" fold="1" page="1" pageScale="1" pageWidth="827" pageHeight="1169" math="0" shadow="0">
      <root>
        <mxCell id="0" />
        <mxCell id="1" parent="0" />
        <mxCell id="4JBcV_hL35uRDa0O3k9x-1" value="&lt;h3 style=&quot;font-size: calc(var(--ds-md-zoom)*16px); line-height: 1.5; margin: calc(var(--ds-md-zoom)*16px)0 calc(var(--ds-md-zoom)*12px)0; color: rgb(64, 64, 64); font-family: quote-cjk-patch, Inter, system-ui, -apple-system, BlinkMacSystemFont, &amp;quot;Segoe UI&amp;quot;, Roboto, &amp;quot;Noto Sans&amp;quot;, Ubuntu, Cantarell, &amp;quot;Helvetica Neue&amp;quot;, Oxygen, &amp;quot;Open Sans&amp;quot;, sans-serif; text-align: start; background-color: rgb(255, 255, 255);&quot;&gt;高度为1的满二叉树&lt;/h3&gt;" style="text;strokeColor=none;align=center;fillColor=none;html=1;verticalAlign=middle;whiteSpace=wrap;rounded=0;" vertex="1" parent="1">
          <mxGeometry x="321.66999999999996" y="170" width="120" height="20" as="geometry" />
        </mxCell>
        <mxCell id="4JBcV_hL35uRDa0O3k9x-15" style="edgeStyle=orthogonalEdgeStyle;rounded=0;orthogonalLoop=1;jettySize=auto;html=1;exitX=0.5;exitY=1;exitDx=0;exitDy=0;" edge="1" parent="1" source="4JBcV_hL35uRDa0O3k9x-1" target="4JBcV_hL35uRDa0O3k9x-1">
          <mxGeometry relative="1" as="geometry" />
        </mxCell>
        <mxCell id="4JBcV_hL35uRDa0O3k9x-16" value="&lt;h3 style=&quot;font-size: calc(var(--ds-md-zoom)*16px); line-height: 1.5; margin: calc(var(--ds-md-zoom)*16px)0 calc(var(--ds-md-zoom)*12px)0; color: rgb(64, 64, 64); font-family: quote-cjk-patch, Inter, system-ui, -apple-system, BlinkMacSystemFont, &amp;quot;Segoe UI&amp;quot;, Roboto, &amp;quot;Noto Sans&amp;quot;, Ubuntu, Cantarell, &amp;quot;Helvetica Neue&amp;quot;, Oxygen, &amp;quot;Open Sans&amp;quot;, sans-serif; text-align: start; background-color: rgb(255, 255, 255);&quot;&gt;高度为2的满二叉树&lt;/h3&gt;" style="text;strokeColor=none;align=center;fillColor=none;html=1;verticalAlign=middle;whiteSpace=wrap;rounded=0;" vertex="1" parent="1">
          <mxGeometry x="321.66999999999996" y="300" width="120" height="20" as="geometry" />
        </mxCell>
        <mxCell id="4JBcV_hL35uRDa0O3k9x-17" value="&lt;h3 style=&quot;font-size: calc(var(--ds-md-zoom)*16px); line-height: 1.5; margin: calc(var(--ds-md-zoom)*16px)0 calc(var(--ds-md-zoom)*12px)0; color: rgb(64, 64, 64); font-family: quote-cjk-patch, Inter, system-ui, -apple-system, BlinkMacSystemFont, &amp;quot;Segoe UI&amp;quot;, Roboto, &amp;quot;Noto Sans&amp;quot;, Ubuntu, Cantarell, &amp;quot;Helvetica Neue&amp;quot;, Oxygen, &amp;quot;Open Sans&amp;quot;, sans-serif; text-align: start; background-color: rgb(255, 255, 255);&quot;&gt;高度为3的满二叉树&lt;/h3&gt;" style="text;strokeColor=none;align=center;fillColor=none;html=1;verticalAlign=middle;whiteSpace=wrap;rounded=0;" vertex="1" parent="1">
          <mxGeometry x="330" y="550" width="120" height="20" as="geometry" />
        </mxCell>
        <mxCell id="4JBcV_hL35uRDa0O3k9x-19" value="" style="group" vertex="1" connectable="0" parent="1">
          <mxGeometry x="351.6700000000001" y="200" width="60" height="60" as="geometry" />
        </mxCell>
        <mxCell id="4JBcV_hL35uRDa0O3k9x-51" value="" style="group" vertex="1" connectable="0" parent="4JBcV_hL35uRDa0O3k9x-19">
          <mxGeometry width="60" height="60" as="geometry" />
        </mxCell>
        <mxCell id="4JBcV_hL35uRDa0O3k9x-20" value="" style="ellipse;whiteSpace=wrap;html=1;aspect=fixed;fillColor=#E6FFCC;" vertex="1" parent="4JBcV_hL35uRDa0O3k9x-51">
          <mxGeometry width="60" height="60" as="geometry" />
        </mxCell>
        <mxCell id="4JBcV_hL35uRDa0O3k9x-21" value="&lt;pre style=&quot;font-family: var(--ds-font-family-code); overflow: auto; padding: calc(var(--ds-md-zoom)*8px)calc(var(--ds-md-zoom)*12px); text-wrap: wrap; word-break: break-all; color: rgb(73, 73, 73); font-size: 12.573px; text-align: start; margin-top: 0px !important; margin-bottom: 0px !important;&quot;&gt;&lt;pre style=&quot;font-family: var(--ds-font-family-code); overflow: auto; padding: calc(var(--ds-md-zoom)*8px)calc(var(--ds-md-zoom)*12px); text-wrap: wrap; word-break: break-all; margin-top: 0px !important; margin-bottom: 0px !important;&quot;&gt;A&lt;/pre&gt;&lt;/pre&gt;" style="text;strokeColor=none;align=center;fillColor=none;html=1;verticalAlign=middle;whiteSpace=wrap;rounded=0;" vertex="1" parent="4JBcV_hL35uRDa0O3k9x-51">
          <mxGeometry x="15" y="17.5" width="30" height="25" as="geometry" />
        </mxCell>
        <mxCell id="4JBcV_hL35uRDa0O3k9x-57" value="" style="group" vertex="1" connectable="0" parent="1">
          <mxGeometry x="280" y="330" width="210" height="190" as="geometry" />
        </mxCell>
        <mxCell id="4JBcV_hL35uRDa0O3k9x-3" value="" style="group" vertex="1" connectable="0" parent="4JBcV_hL35uRDa0O3k9x-57">
          <mxGeometry x="70" width="70" height="63.33333333333334" as="geometry" />
        </mxCell>
        <mxCell id="4JBcV_hL35uRDa0O3k9x-4" value="" style="group" vertex="1" connectable="0" parent="4JBcV_hL35uRDa0O3k9x-3">
          <mxGeometry width="70" height="63.33333333333334" as="geometry" />
        </mxCell>
        <mxCell id="4JBcV_hL35uRDa0O3k9x-54" value="" style="group" vertex="1" connectable="0" parent="4JBcV_hL35uRDa0O3k9x-4">
          <mxGeometry width="63.33333333333334" height="63.33333333333334" as="geometry" />
        </mxCell>
        <mxCell id="4JBcV_hL35uRDa0O3k9x-5" value="" style="ellipse;whiteSpace=wrap;html=1;aspect=fixed;fillColor=#E6FFCC;" vertex="1" parent="4JBcV_hL35uRDa0O3k9x-54">
          <mxGeometry width="63.33333333333334" height="63.33333333333334" as="geometry" />
        </mxCell>
        <mxCell id="4JBcV_hL35uRDa0O3k9x-6" value="&lt;pre style=&quot;font-family: var(--ds-font-family-code); overflow: auto; padding: calc(var(--ds-md-zoom)*8px)calc(var(--ds-md-zoom)*12px); text-wrap: wrap; word-break: break-all; color: rgb(73, 73, 73); font-size: 12.573px; text-align: start; margin-top: 0px !important; margin-bottom: 0px !important;&quot;&gt;&lt;pre style=&quot;font-family: var(--ds-font-family-code); overflow: auto; padding: calc(var(--ds-md-zoom)*8px)calc(var(--ds-md-zoom)*12px); text-wrap: wrap; word-break: break-all; margin-top: 0px !important; margin-bottom: 0px !important;&quot;&gt;A&lt;/pre&gt;&lt;/pre&gt;" style="text;strokeColor=none;align=center;fillColor=none;html=1;verticalAlign=middle;whiteSpace=wrap;rounded=0;" vertex="1" parent="4JBcV_hL35uRDa0O3k9x-54">
          <mxGeometry x="14.17" y="15.833333333333336" width="35" height="31.66666666666667" as="geometry" />
        </mxCell>
        <mxCell id="4JBcV_hL35uRDa0O3k9x-9" value="" style="group" vertex="1" connectable="0" parent="4JBcV_hL35uRDa0O3k9x-57">
          <mxGeometry y="126.66666666666669" width="70" height="63.33333333333334" as="geometry" />
        </mxCell>
        <mxCell id="4JBcV_hL35uRDa0O3k9x-55" value="" style="group" vertex="1" connectable="0" parent="4JBcV_hL35uRDa0O3k9x-9">
          <mxGeometry width="63.33333333333334" height="63.33333333333334" as="geometry" />
        </mxCell>
        <mxCell id="4JBcV_hL35uRDa0O3k9x-10" value="" style="ellipse;whiteSpace=wrap;html=1;aspect=fixed;fillColor=#CCFF99;" vertex="1" parent="4JBcV_hL35uRDa0O3k9x-55">
          <mxGeometry width="63.33333333333334" height="63.33333333333334" as="geometry" />
        </mxCell>
        <mxCell id="4JBcV_hL35uRDa0O3k9x-11" value="&lt;pre style=&quot;font-family: var(--ds-font-family-code); overflow: auto; padding: calc(var(--ds-md-zoom)*8px)calc(var(--ds-md-zoom)*12px); text-wrap: wrap; word-break: break-all; color: rgb(73, 73, 73); font-size: 12.573px; text-align: start; margin-top: 0px !important; margin-bottom: 0px !important;&quot;&gt;B&lt;/pre&gt;" style="text;strokeColor=none;align=center;fillColor=none;html=1;verticalAlign=middle;whiteSpace=wrap;rounded=0;" vertex="1" parent="4JBcV_hL35uRDa0O3k9x-55">
          <mxGeometry x="14.17" y="15.833333333333336" width="35" height="31.66666666666667" as="geometry" />
        </mxCell>
        <mxCell id="4JBcV_hL35uRDa0O3k9x-12" value="" style="group" vertex="1" connectable="0" parent="4JBcV_hL35uRDa0O3k9x-57">
          <mxGeometry x="140" y="126.66666666666669" width="70" height="63.33333333333334" as="geometry" />
        </mxCell>
        <mxCell id="4JBcV_hL35uRDa0O3k9x-56" value="" style="group" vertex="1" connectable="0" parent="4JBcV_hL35uRDa0O3k9x-12">
          <mxGeometry width="63.33333333333334" height="63.33333333333334" as="geometry" />
        </mxCell>
        <mxCell id="4JBcV_hL35uRDa0O3k9x-13" value="" style="ellipse;whiteSpace=wrap;html=1;aspect=fixed;fillColor=#CCFF99;" vertex="1" parent="4JBcV_hL35uRDa0O3k9x-56">
          <mxGeometry width="63.33333333333334" height="63.33333333333334" as="geometry" />
        </mxCell>
        <mxCell id="4JBcV_hL35uRDa0O3k9x-14" value="&lt;pre style=&quot;font-family: var(--ds-font-family-code); overflow: auto; padding: calc(var(--ds-md-zoom)*8px)calc(var(--ds-md-zoom)*12px); text-wrap: wrap; word-break: break-all; color: rgb(73, 73, 73); font-size: 12.573px; text-align: start; margin-top: 0px !important; margin-bottom: 0px !important;&quot;&gt;C&lt;/pre&gt;" style="text;strokeColor=none;align=center;fillColor=none;html=1;verticalAlign=middle;whiteSpace=wrap;rounded=0;" vertex="1" parent="4JBcV_hL35uRDa0O3k9x-56">
          <mxGeometry x="14.17" y="15.833333333333336" width="35" height="31.66666666666667" as="geometry" />
        </mxCell>
        <mxCell id="4JBcV_hL35uRDa0O3k9x-52" value="" style="endArrow=none;html=1;rounded=0;" edge="1" parent="4JBcV_hL35uRDa0O3k9x-57">
          <mxGeometry width="50" height="50" relative="1" as="geometry">
            <mxPoint x="41.670000000000016" y="126.67000000000002" as="sourcePoint" />
            <mxPoint x="81.67000000000002" y="60" as="targetPoint" />
          </mxGeometry>
        </mxCell>
        <mxCell id="4JBcV_hL35uRDa0O3k9x-53" value="" style="endArrow=none;html=1;rounded=0;" edge="1" parent="4JBcV_hL35uRDa0O3k9x-57">
          <mxGeometry width="50" height="50" relative="1" as="geometry">
            <mxPoint x="161.67000000000002" y="126.67000000000002" as="sourcePoint" />
            <mxPoint x="120" y="60" as="targetPoint" />
          </mxGeometry>
        </mxCell>
        <mxCell id="4JBcV_hL35uRDa0O3k9x-72" value="" style="group" vertex="1" connectable="0" parent="1">
          <mxGeometry x="160" y="585" width="459.103896103896" height="360.81818181818176" as="geometry" />
        </mxCell>
        <mxCell id="4JBcV_hL35uRDa0O3k9x-58" value="" style="endArrow=none;html=1;rounded=0;" edge="1" parent="4JBcV_hL35uRDa0O3k9x-72">
          <mxGeometry width="50" height="50" relative="1" as="geometry">
            <mxPoint x="130" y="145" as="sourcePoint" />
            <mxPoint x="197.86" y="55" as="targetPoint" />
          </mxGeometry>
        </mxCell>
        <mxCell id="4JBcV_hL35uRDa0O3k9x-59" value="" style="endArrow=none;html=1;rounded=0;" edge="1" parent="4JBcV_hL35uRDa0O3k9x-72">
          <mxGeometry width="50" height="50" relative="1" as="geometry">
            <mxPoint x="330" y="148" as="sourcePoint" />
            <mxPoint x="260" y="55" as="targetPoint" />
          </mxGeometry>
        </mxCell>
        <mxCell id="4JBcV_hL35uRDa0O3k9x-60" value="" style="endArrow=none;html=1;rounded=0;" edge="1" parent="4JBcV_hL35uRDa0O3k9x-72">
          <mxGeometry width="50" height="50" relative="1" as="geometry">
            <mxPoint x="50" y="295" as="sourcePoint" />
            <mxPoint x="100" y="215" as="targetPoint" />
          </mxGeometry>
        </mxCell>
        <mxCell id="4JBcV_hL35uRDa0O3k9x-62" value="" style="endArrow=none;html=1;rounded=0;" edge="1" parent="4JBcV_hL35uRDa0O3k9x-72">
          <mxGeometry width="50" height="50" relative="1" as="geometry">
            <mxPoint x="280" y="296" as="sourcePoint" />
            <mxPoint x="330" y="216" as="targetPoint" />
          </mxGeometry>
        </mxCell>
        <mxCell id="4JBcV_hL35uRDa0O3k9x-63" value="" style="endArrow=none;html=1;rounded=0;" edge="1" parent="4JBcV_hL35uRDa0O3k9x-72">
          <mxGeometry width="50" height="50" relative="1" as="geometry">
            <mxPoint x="420" y="296" as="sourcePoint" />
            <mxPoint x="370" y="215" as="targetPoint" />
          </mxGeometry>
        </mxCell>
        <mxCell id="4JBcV_hL35uRDa0O3k9x-64" value="" style="endArrow=none;html=1;rounded=0;" edge="1" parent="4JBcV_hL35uRDa0O3k9x-72">
          <mxGeometry width="50" height="50" relative="1" as="geometry">
            <mxPoint x="180" y="296" as="sourcePoint" />
            <mxPoint x="130" y="215" as="targetPoint" />
          </mxGeometry>
        </mxCell>
        <mxCell id="4JBcV_hL35uRDa0O3k9x-65" value="" style="group" vertex="1" connectable="0" parent="4JBcV_hL35uRDa0O3k9x-72">
          <mxGeometry x="197.1428571428571" width="64.81818181818181" height="64.81818181818176" as="geometry" />
        </mxCell>
        <mxCell id="4JBcV_hL35uRDa0O3k9x-48" value="" style="ellipse;whiteSpace=wrap;html=1;aspect=fixed;fillColor=#E6FFCC;" vertex="1" parent="4JBcV_hL35uRDa0O3k9x-65">
          <mxGeometry width="64.81818181818181" height="64.81818181818181" as="geometry" />
        </mxCell>
        <mxCell id="4JBcV_hL35uRDa0O3k9x-49" value="&lt;pre style=&quot;font-family: var(--ds-font-family-code); overflow: auto; padding: calc(var(--ds-md-zoom)*8px)calc(var(--ds-md-zoom)*12px); text-wrap: wrap; word-break: break-all; color: rgb(73, 73, 73); font-size: 12.573px; text-align: start; margin-top: 0px !important; margin-bottom: 0px !important;&quot;&gt;&lt;pre style=&quot;font-family: var(--ds-font-family-code); overflow: auto; padding: calc(var(--ds-md-zoom)*8px)calc(var(--ds-md-zoom)*12px); text-wrap: wrap; word-break: break-all; margin-top: 0px !important; margin-bottom: 0px !important;&quot;&gt;A&lt;/pre&gt;&lt;/pre&gt;" style="text;strokeColor=none;align=center;fillColor=none;html=1;verticalAlign=middle;whiteSpace=wrap;rounded=0;" vertex="1" parent="4JBcV_hL35uRDa0O3k9x-65">
          <mxGeometry x="15.980000000000018" y="14.659999999999968" width="32.86" height="35.5" as="geometry" />
        </mxCell>
        <mxCell id="4JBcV_hL35uRDa0O3k9x-66" value="" style="group" vertex="1" connectable="0" parent="4JBcV_hL35uRDa0O3k9x-72">
          <mxGeometry x="82.14285714285714" y="148" width="64.81818181818184" height="64.81818181818176" as="geometry" />
        </mxCell>
        <mxCell id="4JBcV_hL35uRDa0O3k9x-30" value="" style="ellipse;whiteSpace=wrap;html=1;aspect=fixed;fillColor=#CCFF99;" vertex="1" parent="4JBcV_hL35uRDa0O3k9x-66">
          <mxGeometry width="64.81818181818181" height="64.81818181818181" as="geometry" />
        </mxCell>
        <mxCell id="4JBcV_hL35uRDa0O3k9x-31" value="&lt;pre style=&quot;font-family: var(--ds-font-family-code); overflow: auto; padding: calc(var(--ds-md-zoom)*8px)calc(var(--ds-md-zoom)*12px); text-wrap: wrap; word-break: break-all; color: rgb(73, 73, 73); font-size: 12.573px; text-align: start; margin-top: 0px !important; margin-bottom: 0px !important;&quot;&gt;&lt;pre style=&quot;font-family: var(--ds-font-family-code); overflow: auto; padding: calc(var(--ds-md-zoom)*8px)calc(var(--ds-md-zoom)*12px); text-wrap: wrap; word-break: break-all; margin-top: 0px !important; margin-bottom: 0px !important;&quot;&gt;B&lt;/pre&gt;&lt;/pre&gt;" style="text;strokeColor=none;align=center;fillColor=none;html=1;verticalAlign=middle;whiteSpace=wrap;rounded=0;" vertex="1" parent="4JBcV_hL35uRDa0O3k9x-66">
          <mxGeometry x="15.978571428571428" y="13.909999999999968" width="32.857142857142854" height="37" as="geometry" />
        </mxCell>
        <mxCell id="4JBcV_hL35uRDa0O3k9x-67" value="" style="group" vertex="1" connectable="0" parent="4JBcV_hL35uRDa0O3k9x-72">
          <mxGeometry x="312.1428571428571" y="148" width="64.81818181818176" height="64.81818181818176" as="geometry" />
        </mxCell>
        <mxCell id="4JBcV_hL35uRDa0O3k9x-33" value="" style="ellipse;whiteSpace=wrap;html=1;aspect=fixed;fillColor=#CCFF99;" vertex="1" parent="4JBcV_hL35uRDa0O3k9x-67">
          <mxGeometry width="64.81818181818181" height="64.81818181818181" as="geometry" />
        </mxCell>
        <mxCell id="4JBcV_hL35uRDa0O3k9x-34" value="&lt;pre style=&quot;font-family: var(--ds-font-family-code); overflow: auto; padding: calc(var(--ds-md-zoom)*8px)calc(var(--ds-md-zoom)*12px); text-wrap: wrap; word-break: break-all; color: rgb(73, 73, 73); font-size: 12.573px; text-align: start; margin-top: 0px !important; margin-bottom: 0px !important;&quot;&gt;&lt;pre style=&quot;font-family: var(--ds-font-family-code); overflow: auto; padding: calc(var(--ds-md-zoom)*8px)calc(var(--ds-md-zoom)*12px); text-wrap: wrap; word-break: break-all; margin-top: 0px !important; margin-bottom: 0px !important;&quot;&gt;C&lt;/pre&gt;&lt;/pre&gt;" style="text;strokeColor=none;align=center;fillColor=none;html=1;verticalAlign=middle;whiteSpace=wrap;rounded=0;" vertex="1" parent="4JBcV_hL35uRDa0O3k9x-67">
          <mxGeometry x="15.9785714285714" y="13.909999999999968" width="32.857142857142854" height="37" as="geometry" />
        </mxCell>
        <mxCell id="4JBcV_hL35uRDa0O3k9x-68" value="" style="group" vertex="1" connectable="0" parent="4JBcV_hL35uRDa0O3k9x-72">
          <mxGeometry y="296" width="64.81818181818181" height="64.81818181818176" as="geometry" />
        </mxCell>
        <mxCell id="4JBcV_hL35uRDa0O3k9x-36" value="" style="ellipse;whiteSpace=wrap;html=1;aspect=fixed;fillColor=#99FF33;" vertex="1" parent="4JBcV_hL35uRDa0O3k9x-68">
          <mxGeometry width="64.81818181818181" height="64.81818181818181" as="geometry" />
        </mxCell>
        <mxCell id="4JBcV_hL35uRDa0O3k9x-37" value="&lt;pre style=&quot;font-family: var(--ds-font-family-code); overflow: auto; padding: calc(var(--ds-md-zoom)*8px)calc(var(--ds-md-zoom)*12px); text-wrap: wrap; word-break: break-all; color: rgb(73, 73, 73); font-size: 12.573px; text-align: start; margin-top: 0px !important; margin-bottom: 0px !important;&quot;&gt;&lt;pre style=&quot;font-family: var(--ds-font-family-code); overflow: auto; padding: calc(var(--ds-md-zoom)*8px)calc(var(--ds-md-zoom)*12px); text-wrap: wrap; word-break: break-all; margin-top: 0px !important; margin-bottom: 0px !important;&quot;&gt;D&lt;/pre&gt;&lt;/pre&gt;" style="text;strokeColor=none;align=center;fillColor=none;html=1;verticalAlign=middle;whiteSpace=wrap;rounded=0;" vertex="1" parent="4JBcV_hL35uRDa0O3k9x-68">
          <mxGeometry x="15.978571428571428" y="13.909999999999968" width="32.857142857142854" height="37" as="geometry" />
        </mxCell>
        <mxCell id="4JBcV_hL35uRDa0O3k9x-69" value="" style="group" vertex="1" connectable="0" parent="4JBcV_hL35uRDa0O3k9x-72">
          <mxGeometry x="147.85714285714283" y="296" width="64.81818181818181" height="64.81818181818176" as="geometry" />
        </mxCell>
        <mxCell id="4JBcV_hL35uRDa0O3k9x-39" value="" style="ellipse;whiteSpace=wrap;html=1;aspect=fixed;fillColor=#99FF33;" vertex="1" parent="4JBcV_hL35uRDa0O3k9x-69">
          <mxGeometry width="64.81818181818181" height="64.81818181818181" as="geometry" />
        </mxCell>
        <mxCell id="4JBcV_hL35uRDa0O3k9x-40" value="&lt;pre style=&quot;font-family: var(--ds-font-family-code); overflow: auto; padding: calc(var(--ds-md-zoom)*8px)calc(var(--ds-md-zoom)*12px); text-wrap: wrap; word-break: break-all; color: rgb(73, 73, 73); font-size: 12.573px; text-align: start; margin-top: 0px !important; margin-bottom: 0px !important;&quot;&gt;&lt;pre style=&quot;font-family: var(--ds-font-family-code); overflow: auto; padding: calc(var(--ds-md-zoom)*8px)calc(var(--ds-md-zoom)*12px); text-wrap: wrap; word-break: break-all; margin-top: 0px !important; margin-bottom: 0px !important;&quot;&gt;E&lt;/pre&gt;&lt;/pre&gt;" style="text;strokeColor=none;align=center;fillColor=none;html=1;verticalAlign=middle;whiteSpace=wrap;rounded=0;" vertex="1" parent="4JBcV_hL35uRDa0O3k9x-69">
          <mxGeometry x="15.978571428571456" y="13.909999999999968" width="32.857142857142854" height="37" as="geometry" />
        </mxCell>
        <mxCell id="4JBcV_hL35uRDa0O3k9x-70" value="" style="group" vertex="1" connectable="0" parent="4JBcV_hL35uRDa0O3k9x-72">
          <mxGeometry x="246.42857142857144" y="296" width="64.81818181818181" height="64.81818181818176" as="geometry" />
        </mxCell>
        <mxCell id="4JBcV_hL35uRDa0O3k9x-42" value="" style="ellipse;whiteSpace=wrap;html=1;aspect=fixed;fillColor=#99FF33;" vertex="1" parent="4JBcV_hL35uRDa0O3k9x-70">
          <mxGeometry width="64.81818181818181" height="64.81818181818181" as="geometry" />
        </mxCell>
        <mxCell id="4JBcV_hL35uRDa0O3k9x-43" value="&lt;pre style=&quot;font-family: var(--ds-font-family-code); overflow: auto; padding: calc(var(--ds-md-zoom)*8px)calc(var(--ds-md-zoom)*12px); text-wrap: wrap; word-break: break-all; color: rgb(73, 73, 73); font-size: 12.573px; text-align: start; margin-top: 0px !important; margin-bottom: 0px !important;&quot;&gt;&lt;pre style=&quot;font-family: var(--ds-font-family-code); overflow: auto; padding: calc(var(--ds-md-zoom)*8px)calc(var(--ds-md-zoom)*12px); text-wrap: wrap; word-break: break-all; margin-top: 0px !important; margin-bottom: 0px !important;&quot;&gt;F&lt;/pre&gt;&lt;/pre&gt;" style="text;strokeColor=none;align=center;fillColor=none;html=1;verticalAlign=middle;whiteSpace=wrap;rounded=0;" vertex="1" parent="4JBcV_hL35uRDa0O3k9x-70">
          <mxGeometry x="15.9785714285714" y="13.909999999999968" width="32.857142857142854" height="37" as="geometry" />
        </mxCell>
        <mxCell id="4JBcV_hL35uRDa0O3k9x-71" value="" style="group" vertex="1" connectable="0" parent="4JBcV_hL35uRDa0O3k9x-72">
          <mxGeometry x="394.2857142857142" y="296" width="64.81818181818176" height="64.81818181818176" as="geometry" />
        </mxCell>
        <mxCell id="4JBcV_hL35uRDa0O3k9x-45" value="" style="ellipse;whiteSpace=wrap;html=1;aspect=fixed;fillColor=#99FF33;" vertex="1" parent="4JBcV_hL35uRDa0O3k9x-71">
          <mxGeometry width="64.81818181818181" height="64.81818181818181" as="geometry" />
        </mxCell>
        <mxCell id="4JBcV_hL35uRDa0O3k9x-46" value="&lt;pre style=&quot;font-family: var(--ds-font-family-code); overflow: auto; padding: calc(var(--ds-md-zoom)*8px)calc(var(--ds-md-zoom)*12px); text-wrap: wrap; word-break: break-all; color: rgb(73, 73, 73); font-size: 12.573px; text-align: start; margin-top: 0px !important; margin-bottom: 0px !important;&quot;&gt;&lt;pre style=&quot;font-family: var(--ds-font-family-code); overflow: auto; padding: calc(var(--ds-md-zoom)*8px)calc(var(--ds-md-zoom)*12px); text-wrap: wrap; word-break: break-all; margin-top: 0px !important; margin-bottom: 0px !important;&quot;&gt;G&lt;/pre&gt;&lt;/pre&gt;" style="text;strokeColor=none;align=center;fillColor=none;html=1;verticalAlign=middle;whiteSpace=wrap;rounded=0;" vertex="1" parent="4JBcV_hL35uRDa0O3k9x-71">
          <mxGeometry x="15.9785714285714" y="13.909999999999968" width="32.857142857142854" height="37" as="geometry" />
        </mxCell>
      </root>
    </mxGraphModel>
  </diagram>
</mxfile>
